<?xml version="1.0" ?><!DOCTYPE svg  PUBLIC '-//W3C//DTD SVG 1.1//EN'  'http://www.w3.org/Graphics/SVG/1.1/DTD/svg11.dtd'><svg version="1.1" viewBox="0 0 56.7 56.7" xml:space="preserve" xmlns="http://www.w3.org/2000/svg" xmlns:xlink="http://www.w3.org/1999/xlink"><path d="  M45.4,18.4v-7.1H25.5c0-2.3-1.9-4.3-4.3-4.3v0H9.9v0c-2.3,0-4.3,1.9-4.3,4.3v31.2l5.7-24.1H45.4z" fill="none" stroke="#fff" stroke-linecap="round" stroke-linejoin="round" stroke-miterlimit="10" stroke-width="2"/><path d="  M11.3,18.4L5.7,42.5h12.1c0.5-0.4,1.1-0.6,1.7-0.7c-0.1-0.3-0.2-0.5-0.2-0.8c0-1.3,1.1-2.4,2.4-2.4c0.6,0,1.2,0.2,1.6,0.6  c1.2-2.3,3.5-3.8,6.3-3.8c3.9,0,7.1,3.2,7.1,7.1c0,0,0,0,0,0l8.7,0L51,18.4H11.3z" fill="none" stroke="#fff" stroke-linecap="round" stroke-linejoin="round" stroke-miterlimit="10" stroke-width="2"/><path d="  M37.4,49.6c1.7,0,3.2-1.4,3.2-3.2c0-1.7-1.4-3.2-3.2-3.2c-0.3,0-0.6,0-0.9,0.1c0-0.3,0.1-0.6,0.1-0.9c0-3.9-3.2-7.1-7.1-7.1  c-2.7,0-5.1,1.5-6.3,3.8c-0.4-0.4-1-0.6-1.6-0.6c-1.3,0-2.4,1.1-2.4,2.4c0,0.3,0.1,0.6,0.2,0.8c-1.9,0.3-3.3,1.9-3.3,3.9  c0,2.2,1.8,3.9,3.9,3.9H37.4z" fill="none" stroke="#fff" stroke-linecap="round" stroke-linejoin="round" stroke-miterlimit="10" stroke-width="2"/></svg>